# xmcd CD database file
#
# Track frame offsets:
#	180
#	20522
#	37384
#	55140
#	74475
#	88294
#	110032
#	134633
#	157190
#	180394
#	197723
#	220041
#
# Disc length: 3374 seconds
#
# Revision: 0
# Processed by: cddbd v1.4PL0 Copyright (c) Steve Scherf et al.
# Submitted via: CDex 1.50beta9
#
DISCID=bc0d2c0c
DTITLE=Laura Zaerr - Deep Waters
DYEAR=1994
DGENRE=New Age
TTITLE0=Flood Tide
TTITLE1=I Know A River
TTITLE2=Crystal Lace
TTITLE3=Land of Passages
TTITLE4=Towards Juneau
TTITLE5=Lonely Land
TTITLE6=Espresso Jazz
TTITLE7=Not For Me
TTITLE8=Touch Wings
TTITLE9=Ascent
TTITLE10=Seven Hundred Pieces
TTITLE11=Lauda Variations
EXTD=YEAR: 1994
EXTT0=
EXTT1=
EXTT2=
EXTT3=
EXTT4=
EXTT5=
EXTT6=
EXTT7=
EXTT8=
EXTT9=
EXTT10=
EXTT11=
PLAYORDER=
